# xmcd CD database file
#
# Track frame offsets:
#	150
#	26313
#	71448
#	102695
#	146805
#	176659
#	205719
#	227917
#
# Disc length: 3289 seconds
#
# Revision: 0
# Processed by: cddbd v1.5.2PL0 Copyright (c) Steve Scherf et al.
# Submitted via: CDex 1.70beta2
#
DISCID=6f0cd708
DTITLE=Mobley, Hank - Mobley's 2nd Message - Jazz Message No 2
DYEAR=1957
DGENRE=Jazz
TTITLE0=The latest
TTITLE1=I Should Care
TTITLE2=Crazeology
TTITLE3=Thad's Blues
TTITLE4=Doug's Minor B' OK
TTITLE5=B. For B.B.
TTITLE6=Blues Number Two
TTITLE7=Space Flight
EXTD=YEAR: 1957
EXTT0=
EXTT1=
EXTT2=
EXTT3=
EXTT4=
EXTT5=
EXTT6=
EXTT7=
PLAYORDER=
